<?xml version="1.0" encoding="UTF-8"?>
<svg version="1.1" xmlns="http://www.w3.org/2000/svg" width="176" height="178">
<path d="M0 0 C2.81505544 2.25439677 5.29445444 4.66030183 7.8046875 7.24609375 C8.36671875 7.75011719 8.92875 8.25414063 9.5078125 8.7734375 C22.28759401 20.42369287 30.67877133 38.93856721 32.02416992 56.03515625 C32.97268445 79.45173284 28.55009308 100.20839762 12.8046875 118.24609375 C12.33675781 118.84421875 11.86882812 119.44234375 11.38671875 120.05859375 C-1.10219251 135.73095298 -20.67650495 144.39744903 -40.19140625 146.76953125 C-61.57099922 148.88846446 -83.23917822 143.33042707 -100.1328125 129.74609375 C-101.83613175 128.26408167 -103.52541876 126.76566972 -105.1953125 125.24609375 C-105.82824219 124.694375 -106.46117188 124.14265625 -107.11328125 123.57421875 C-122.5783816 109.2769635 -130.16036408 89.10884884 -131.12304688 68.4621582 C-131.76505693 46.62297149 -124.43007442 26.81221825 -110.1953125 10.24609375 C-80.63546037 -20.36477535 -34.61467066 -24.70589089 0 0 Z M-49.1953125 -9.75390625 C-52.2744014 2.94158496 -54.78699537 15.75788861 -57.3828125 28.55859375 C-59.765 40.28390625 -59.765 40.28390625 -62.1953125 52.24609375 C-82.6553125 56.20609375 -103.1153125 60.16609375 -124.1953125 64.24609375 C-121.64976448 66.79164177 -119.9794534 66.88268529 -116.46044922 67.57470703 C-115.25935516 67.81480499 -114.05826111 68.05490295 -112.82077026 68.30227661 C-111.50554531 68.55715064 -110.19028776 68.81185655 -108.875 69.06640625 C-107.53251081 69.33192 -106.19015587 69.5981134 -104.84793091 69.86495972 C-101.31468846 70.56549892 -97.77969531 71.25677856 -94.2442627 71.94616699 C-90.63700275 72.65125273 -87.03146894 73.36505085 -83.42578125 74.078125 C-76.35062192 75.47599655 -69.2735911 76.8640937 -62.1953125 78.24609375 C-60.98634902 83.8795385 -59.77787998 89.51308904 -58.56982422 95.14672852 C-58.16077283 97.0539826 -57.75159779 98.96121017 -57.34228516 100.8684082 C-56.94461105 102.72145229 -56.54719107 104.57455094 -56.15002441 106.42770386 C-55.75317356 108.27779616 -55.35530581 110.12767062 -54.9564209 111.97732544 C-53.96418684 116.59141735 -52.99650419 121.20839106 -52.07617188 125.83740234 C-51.89846252 126.71917648 -51.72075317 127.60095062 -51.53765869 128.50944519 C-51.20182262 130.18193873 -50.87285755 131.85583075 -50.55169678 133.53120422 C-50.16372232 135.45026137 -49.68803943 137.35122577 -49.1953125 139.24609375 C-48.5353125 139.57609375 -47.8753125 139.90609375 -47.1953125 140.24609375 C-47.0094458 139.25617432 -46.8235791 138.26625488 -46.63208008 137.24633789 C-42.9326015 117.55629072 -39.19464713 97.87791532 -35.1953125 78.24609375 C-30.16030971 76.43149969 -25.10422424 75.28031869 -19.87890625 74.1875 C-18.53953758 73.90277077 -18.53953758 73.90277077 -17.17311096 73.61228943 C-14.327023 73.00780302 -11.47998273 72.40795989 -8.6328125 71.80859375 C-4.90199514 71.01986928 -1.17159652 70.22918458 2.55859375 69.4375 C3.8975621 69.1536998 3.8975621 69.1536998 5.26358032 68.86416626 C12.12968866 67.40344655 18.97429151 65.86652761 25.8046875 64.24609375 C25.8046875 63.91609375 25.8046875 63.58609375 25.8046875 63.24609375 C24.55558594 63.01946045 23.30648437 62.79282715 22.01953125 62.55932617 C17.30785768 61.70432541 12.59629631 60.84870768 7.88476562 59.99291992 C5.86005577 59.62524314 3.83531703 59.25772541 1.81054688 58.89038086 C-10.19831282 56.71154567 -22.20296318 54.51424037 -34.1953125 52.24609375 C-36.72550108 45.1752073 -38.40662766 38.12849149 -39.89453125 30.7734375 C-40.1344429 29.60978165 -40.37435455 28.44612579 -40.62153625 27.24720764 C-41.38043396 23.56036966 -42.13173597 19.87203212 -42.8828125 16.18359375 C-43.39858604 13.67112075 -43.91485698 11.1587498 -44.43164062 8.64648438 C-45.69195449 2.51418972 -46.94604956 -3.61935132 -48.1953125 -9.75390625 C-48.5253125 -9.75390625 -48.8553125 -9.75390625 -49.1953125 -9.75390625 Z " fill="#E4212A" transform="translate(136.1953125,22.75390625)"/>
<path d="M0 0 C0.66 0 1.32 0 2 0 C2 1.65 2 3.3 2 5 C1.34 5 0.68 5 0 5 C0.01160156 5.84304687 0.02320312 6.68609375 0.03515625 7.5546875 C0.04417969 8.65039062 0.05320312 9.74609375 0.0625 10.875 C0.07410156 11.96554688 0.08570312 13.05609375 0.09765625 14.1796875 C0 17 0 17 -1 19 C3.95 19 8.9 19 14 19 C14 19.33 14 19.66 14 20 C3.38014921 21.84626716 -6.29347768 22.0411073 -17 21 C-17 20.34 -17 19.68 -17 19 C-13.04 19 -9.08 19 -5 19 C-5.33 17.68 -5.66 16.36 -6 15 C-6.06624507 13.25113019 -6.08552595 11.49997252 -6.0625 9.75 C-6.05347656 8.85796875 -6.04445313 7.9659375 -6.03515625 7.046875 C-6.02355469 6.37140625 -6.01195313 5.6959375 -6 5 C-4.24005726 8.16789693 -3.75127114 10.24364431 -3 14 C-2.01 9.38 -1.02 4.76 0 0 Z " fill="#C5272D" transform="translate(91,148)"/>
<path d="M0 0 C0.33 0 0.66 0 1 0 C1.33 3.3 1.66 6.6 2 10 C11.33708098 10.91505601 11.33708098 10.91505601 19.875 8 C20.57625 7.34 21.2775 6.68 22 6 C22.33 6.66 22.66 7.32 23 8 C25.01669827 9.13350534 25.01669827 9.13350534 27 10 C26.14450562 10.16604736 26.14450562 10.16604736 25.27172852 10.33544922 C22.7001482 10.83974239 20.13138957 11.35718237 17.5625 11.875 C16.66466797 12.04902344 15.76683594 12.22304687 14.84179688 12.40234375 C13.98779297 12.57636719 13.13378906 12.75039062 12.25390625 12.9296875 C11.46314697 13.08679199 10.6723877 13.24389648 9.85766602 13.40576172 C9.24463623 13.60186035 8.63160645 13.79795898 8 14 C7.67 14.66 7.34 15.32 7 16 C5.68 16 4.36 16 3 16 C3 15.01 3 14.02 3 13 C2.34 13 1.68 13 1 13 C1 13.66 1 14.32 1 15 C0.34 15 -0.32 15 -1 15 C-0.67 10.05 -0.34 5.1 0 0 Z " fill="#D31F27" transform="translate(6,74)"/>
<path d="M0 0 C0.66 0 1.32 0 2 0 C2 1.65 2 3.3 2 5 C2.33 4.01 2.66 3.02 3 2 C4.32 2 5.64 2 7 2 C6.41196203 5.02419525 5.77321882 8.01758453 5 11 C6.32 11 7.64 11 9 11 C9.33 11.99 9.66 12.98 10 14 C10.474375 14.474375 10.94875 14.94875 11.4375 15.4375 C13.15372082 17.15372082 14.01313226 18.79852582 15 21 C7.52493605 17.72029488 2.41617465 10.62426197 -2 4 C-1.34 3.67 -0.68 3.34 0 3 C0 2.01 0 1.02 0 0 Z " fill="#DC242A" transform="translate(21,130)"/>
<path d="M0 0 C0.66 0 1.32 0 2 0 C2.43957031 0.46019531 2.87914063 0.92039062 3.33203125 1.39453125 C5.34594573 3.33298289 7.02818631 3.87814366 9.6875 4.6875 C10.49574219 4.93886719 11.30398437 5.19023438 12.13671875 5.44921875 C12.75160156 5.63097656 13.36648437 5.81273438 14 6 C10.31139103 7.29101314 7.495019 6.73724424 3.703125 6.00390625 C1.89521484 5.66069336 1.89521484 5.66069336 0.05078125 5.31054688 C-1.20347656 5.06369141 -2.45773438 4.81683594 -3.75 4.5625 C-5.01972656 4.31951172 -6.28945312 4.07652344 -7.59765625 3.82617188 C-10.73330363 3.22497632 -13.86722859 2.61597659 -17 2 C-17 1.67 -17 1.34 -17 1 C-11.39 1 -5.78 1 0 1 C0 0.67 0 0.34 0 0 Z " fill="#C72933" transform="translate(119,74)"/>
<path d="M0 0 C3.18748029 -0.02932572 6.37492528 -0.04690739 9.5625 -0.0625 C10.90538086 -0.07506836 10.90538086 -0.07506836 12.27539062 -0.08789062 C17.29997943 -0.10629571 22.04817291 0.13733602 27 1 C27 1.33 27 1.66 27 2 C21.72 2 16.44 2 11 2 C10.67 3.98 10.34 5.96 10 8 C7 4.125 7 4.125 7 3 C4.69 2.67 2.38 2.34 0 2 C0 1.34 0 0.68 0 0 Z " fill="#B8262B" transform="translate(77,7)"/>
<path d="M0 0 C0.66 0.33 1.32 0.66 2 1 C0.35 2.98 -1.3 4.96 -3 7 C-2.34 7.33 -1.68 7.66 -1 8 C-5.75 12 -5.75 12 -8 12 C-8.33 12.99 -8.66 13.98 -9 15 C-9.66 15 -10.32 15 -11 15 C-11.66 16.32 -12.32 17.64 -13 19 C-13 13.02222748 -7.23497815 7.48979751 -3.35546875 3.16796875 C-2.26778016 2.08028016 -1.13980388 1.03294727 0 0 Z " fill="#C9252F" transform="translate(31,28)"/>
<path d="M0 0 C0.33 1.32 0.66 2.64 1 4 C0.34 4 -0.32 4 -1 4 C-0.67 4.99 -0.34 5.98 0 7 C-0.9609375 9.0859375 -0.9609375 9.0859375 -2.375 11.375 C-4.37613158 14.62823626 -5.36558856 17.2366467 -6 21 C-6.63437344 22.6792238 -7.29289322 24.35008418 -8 26 C-10.28448668 19.73991311 -6.23487835 12.68603482 -3.6171875 6.9921875 C-2.44513815 4.64139138 -1.247734 2.3113761 0 0 Z " fill="#C22B33" transform="translate(16,47)"/>
<path d="M0 0 C-1.4375 2 -1.4375 2 -4 4 C-6.28517207 4.2558352 -8.44274991 4.18425248 -10.73828125 4.07421875 C-13.58291445 3.98087155 -16.21938298 4.42961702 -19 5 C-19 5.66 -19 6.32 -19 7 C-20.65 7 -22.3 7 -24 7 C-17.67842696 1.63204625 -8.19871 -0.7626707 0 0 Z " fill="#BD232A" transform="translate(76,8)"/>
<path d="M0 0 C0.99 0.33 1.98 0.66 3 1 C2.51358785 7.84817102 1.64006048 14.33042073 0 21 C-0.33 21 -0.66 21 -1 21 C-0.98839844 19.80761719 -0.97679688 18.61523438 -0.96484375 17.38671875 C-0.95546408 15.82031406 -0.94636407 14.25390769 -0.9375 12.6875 C-0.92912109 11.90181641 -0.92074219 11.11613281 -0.91210938 10.30664062 C-0.90888672 9.54931641 -0.90566406 8.79199219 -0.90234375 8.01171875 C-0.89710693 7.31522217 -0.89187012 6.61872559 -0.88647461 5.90112305 C-0.93104009 3.77502032 -0.93104009 3.77502032 -2 1 C-1.34 0.67 -0.68 0.34 0 0 Z " fill="#C8232C" transform="translate(83,14)"/>
<path d="M0 0 C0.99 0.33 1.98 0.66 3 1 C4.33106622 1.34227417 5.66400079 1.67751743 7 2 C7.5321441 4.08047297 8.05031786 6.16452293 8.5625 8.25 C8.85253906 9.41015625 9.14257812 10.5703125 9.44140625 11.765625 C9.95179964 14.72090983 10.02996165 16.24434101 9 19 C6.67409146 15.36576791 6.83734167 12.22911669 7 8 C6.34 8 5.68 8 5 8 C3.7109375 6.50390625 3.7109375 6.50390625 2.375 4.5625 C1.92898437 3.92441406 1.48296875 3.28632812 1.0234375 2.62890625 C0 1 0 1 0 0 Z " fill="#CE252F" transform="translate(72,118)"/>
<path d="M0 0 C1.98 0.99 3.96 1.98 6 3 C6 3.99 6 4.98 6 6 C4.27054347 5.85764543 2.54144346 5.71095618 0.8125 5.5625 C-0.63189453 5.44068359 -0.63189453 5.44068359 -2.10546875 5.31640625 C-4.78649602 5.02333849 -7.3662986 4.57296246 -10 4 C-10 3.67 -10 3.34 -10 3 C-6.7 3 -3.4 3 0 3 C0 2.01 0 1.02 0 0 Z " fill="#D0272F" transform="translate(156,80)"/>
<path d="M0 0 C0.66 0.66 1.32 1.32 2 2 C3.31747324 2.69748583 4.64914193 3.36959957 6 4 C3.45953542 4.50688605 0.91791124 5.00566874 -1.625 5.5 C-2.33785156 5.64308594 -3.05070312 5.78617187 -3.78515625 5.93359375 C-7.92144935 6.73049426 -11.76433679 7.16034056 -16 7 C-15.67 6.34 -15.34 5.68 -15 5 C-12.890625 4.7265625 -12.890625 4.7265625 -10.25 4.625 C-5.68081838 4.27805641 -3.2745745 3.38372698 0 0 Z " fill="#C6272F" transform="translate(27,80)"/>
<path d="M0 0 C0.66 0 1.32 0 2 0 C2 0.66 2 1.32 2 2 C6.455 1.505 6.455 1.505 11 1 C6.34234228 5.25264401 0.18257992 7 -6 7 C-6 6.34 -6 5.68 -6 5 C-4.02 5 -2.04 5 0 5 C0 3.35 0 1.7 0 0 Z " fill="#C4282F" transform="translate(111,160)"/>
<path d="M0 0 C0.66 0 1.32 0 2 0 C2 0.66 2 1.32 2 2 C2.66 2.33 3.32 2.66 4 3 C3.34 4.65 2.68 6.3 2 8 C2.99 7.67 3.98 7.34 5 7 C4.835 7.886875 4.67 8.77375 4.5 9.6875 C4.07004243 12.53596892 3.91558965 15.13004802 4 18 C2.36427347 15.03095016 1.51349012 12.32420253 0.875 9 C0.70742187 8.154375 0.53984375 7.30875 0.3671875 6.4375 C0 4 0 4 0 0 Z " fill="#C5252D" transform="translate(88,14)"/>
<path d="M0 0 C2.97 0.495 2.97 0.495 6 1 C6.33 1.99 6.66 2.98 7 4 C7.474375 4.474375 7.94875 4.94875 8.4375 5.4375 C10.15372082 7.15372082 11.01313226 8.79852582 12 11 C8.57472113 9.52651292 6.35044942 7.59092154 3.75 4.9375 C3.04359375 4.22464844 2.3371875 3.51179687 1.609375 2.77734375 C0 1 0 1 0 0 Z " fill="#CA2D36" transform="translate(24,140)"/>
<path d="M0 0 C2.40118527 2.40118527 2.75220861 4.05496042 3.625 7.3125 C3.88539063 8.25738281 4.14578125 9.20226562 4.4140625 10.17578125 C4.97479648 12.87851902 5.1101876 15.25031848 5 18 C4.34 17.67 3.68 17.34 3 17 C2.1484375 14.19921875 2.1484375 14.19921875 1.375 10.6875 C1.11460937 9.53636719 0.85421875 8.38523437 0.5859375 7.19921875 C0 4 0 4 0 0 Z " fill="#C32830" transform="translate(162,58)"/>
<path d="M0 0 C3.3 0.33 6.6 0.66 10 1 C8.68 1.33 7.36 1.66 6 2 C6 3.32 6 4.64 6 6 C4.35 5.67 2.7 5.34 1 5 C0.67 3.35 0.34 1.7 0 0 Z " fill="#CE252A" transform="translate(50,96)"/>
<path d="M0 0 C0.66 0.33 1.32 0.66 2 1 C1.67 3.97 1.34 6.94 1 10 C0.34 8.68 -0.32 7.36 -1 6 C-3.05000871 5.19471111 -3.05000871 5.19471111 -5 5 C-4.67 4.34 -4.34 3.68 -4 3 C-3.34 3 -2.68 3 -2 3 C-2 2.34 -2 1.68 -2 1 C-1.34 0.67 -0.68 0.34 0 0 Z " fill="#CC2429" transform="translate(75,60)"/>
<path d="M0 0 C0.33 0.66 0.66 1.32 1 2 C-0.24493748 4.28974316 -1.52641528 6.44190034 -2.9375 8.625 C-3.32357422 9.23601562 -3.70964844 9.84703125 -4.10742188 10.4765625 C-5.06446326 11.9889242 -6.03132811 13.49506117 -7 15 C-8.27162597 11.1851221 -7.64661571 9.6068725 -6 6 C-3.875 5.125 -3.875 5.125 -2 5 C-1.855625 4.360625 -1.71125 3.72125 -1.5625 3.0625 C-1 1 -1 1 0 0 Z " fill="#C62B37" transform="translate(159,123)"/>
<path d="M0 0 C2.125 0.375 2.125 0.375 4 1 C3.319375 1.495 3.319375 1.495 2.625 2 C0.15680026 5.0377843 -0.18843144 8.19187061 -1 12 C-1.66 12 -2.32 12 -3 12 C-2.88601335 10.37419034 -2.75844341 8.74932843 -2.625 7.125 C-2.55539063 6.22007813 -2.48578125 5.31515625 -2.4140625 4.3828125 C-2 2 -2 2 0 0 Z " fill="#C92733" transform="translate(102,99)"/>
<path d="M0 0 C5.27315333 0.4452885 10.01770224 1.08373163 15 3 C14.67 4.32 14.34 5.64 14 7 C13.67 6.01 13.34 5.02 13 4 C12.31292969 3.96261719 11.62585938 3.92523438 10.91796875 3.88671875 C10.01691406 3.82097656 9.11585937 3.75523438 8.1875 3.6875 C6.84751953 3.60048828 6.84751953 3.60048828 5.48046875 3.51171875 C2.69396 2.93686419 1.75864246 2.1793144 0 0 Z " fill="#BA2634" transform="translate(60,98)"/>
<path d="M0 0 C0.66 0 1.32 0 2 0 C2 1.65 2 3.3 2 5 C-1.82320557 6.42258812 -4.91281305 7.24042276 -9 7 C-5.25 5 -5.25 5 -3 5 C-3 4.34 -3 3.68 -3 3 C-2.01 3 -1.02 3 0 3 C0 2.01 0 1.02 0 0 Z " fill="#C72733" transform="translate(73,70)"/>
<path d="M0 0 C4.77609498 1.64178265 8.79382904 4.26546702 13 7 C12.01 7.33 11.02 7.66 10 8 C7.625 6.75 7.625 6.75 5 5 C4.071875 4.484375 3.14375 3.96875 2.1875 3.4375 C1.465625 2.963125 0.74375 2.48875 0 2 C0 1.34 0 0.68 0 0 Z " fill="#BC2A32" transform="translate(122,15)"/>
<path d="M0 0 C0.66 0 1.32 0 2 0 C2.28875 0.78375 2.5775 1.5675 2.875 2.375 C3.84912254 5.09671632 3.84912254 5.09671632 6 7 C5.34 7 4.68 7 4 7 C4.33 8.32 4.66 9.64 5 11 C4.34 11 3.68 11 3 11 C2.49384702 9.73160474 1.99530901 8.46016898 1.5 7.1875 C1.2215625 6.47980469 0.943125 5.77210937 0.65625 5.04296875 C0 3 0 3 0 0 Z " fill="#D22731" transform="translate(8,108)"/>
<path d="M0 0 C-4.96993194 2.43425238 -8.34605369 3.34615998 -14 3 C-14 2.34 -14 1.68 -14 1 C-12.41913952 0.63495397 -10.83516093 0.28339494 -9.25 -0.0625 C-8.36828125 -0.25972656 -7.4865625 -0.45695312 -6.578125 -0.66015625 C-4.01320972 -0.99825872 -2.42908361 -0.81158635 0 0 Z " fill="#C02C33" transform="translate(125,96)"/>
<path d="M0 0 C2.61724095 2.36797991 4.32861729 4.89600354 6 8 C6 8.66 6 9.32 6 10 C5.01 10 4.02 10 3 10 C2.49596232 8.70990357 1.99690074 7.41786211 1.5 6.125 C1.2215625 5.40570313 0.943125 4.68640625 0.65625 3.9453125 C0 2 0 2 0 0 Z " fill="#C22D33" transform="translate(154,43)"/>
<path d="M0 0 C0.66 0 1.32 0 2 0 C2 2.31 2 4.62 2 7 C2.66 7.33 3.32 7.66 4 8 C3.01 8 2.02 8 1 8 C-0.6875 5.5 -0.6875 5.5 -2 3 C-1.34 3 -0.68 3 0 3 C0 2.01 0 1.02 0 0 Z " fill="#D42B37" transform="translate(21,130)"/>
<path d="M0 0 C-2.25 2.0625 -2.25 2.0625 -5 4 C-7.3125 3.75 -7.3125 3.75 -9 3 C-9 2.34 -9 1.68 -9 1 C-5.92677456 0.08941469 -3.19902639 -0.08886184 0 0 Z " fill="#C82930" transform="translate(149,90)"/>
<path d="M0 0 C0.33 0.99 0.66 1.98 1 3 C0.01 3.33 -0.98 3.66 -2 4 C-2 4.66 -2 5.32 -2 6 C-3.32 5.67 -4.64 5.34 -6 5 C-4.02 3.35 -2.04 1.7 0 0 Z " fill="#C92A31" transform="translate(40,21)"/>
<path d="M0 0 C5.445 1.485 5.445 1.485 11 3 C11 3.33 11 3.66 11 4 C7.75 4.25 7.75 4.25 4 4 C2.68 2.68 1.36 1.36 0 0 Z " fill="#B5252D" transform="translate(106,9)"/>
<path d="M0 0 C1.39195915 4.17587745 -0.17676781 6.13474776 -2 10 C-2.33 10 -2.66 10 -3 10 C-2.25 3.375 -2.25 3.375 0 0 Z " fill="#C4313E" transform="translate(163,113)"/>
</svg>
